<svg role="img" viewBox="0 0 24 24" xmlns="http://www.w3.org/2000/svg" id="Mixpanel--Streamline-Simple-Icons" height="24" width="24">
  <desc>
    Mixpanel Streamline Icon: https://streamlinehq.com
  </desc>
  <title>Mixpanel</title>
  <path d="M6.967 9.996h3.053c-0.763 -0.477 -1.048 -1.145 -1.431 -2.384L7.443 3.366C6.919 1.458 6.49 0.551 4.39 0.551H0.004v1.145h0.621c1.286 0 1.431 0.477 1.814 1.908L3.44 7.326c0.524 1.814 1.337 2.67 3.53 2.67h-0.003Zm7.06 0h3.053c2.194 0 2.956 -0.86 3.484 -2.67l1.001 -3.722c0.382 -1.431 0.57 -1.908 1.814 -1.908H24V0.551h-4.34c-2.146 0 -2.576 0.86 -3.053 2.815l-1.145 4.246c-0.384 1.286 -0.673 1.907 -1.435 2.384Zm-4.007 4.008h4.007V9.996H10.02v4.008ZM0 23.449h4.39c2.1 0 2.529 -0.907 3.053 -2.815l1.146 -4.246c0.383 -1.239 0.668 -1.907 1.431 -2.384H6.967c-2.194 0 -3.007 0.86 -3.531 2.67l-1.001 3.722c-0.383 1.431 -0.524 1.907 -1.814 1.907H0v1.146Zm19.65 0h4.343v-1.146h-0.622c-1.239 0 -1.431 -0.476 -1.814 -1.907l-1.001 -3.722c-0.524 -1.814 -1.286 -2.67 -3.483 -2.67h-3.046c0.762 0.477 1.041 1.098 1.424 2.384l1.145 4.246c0.477 1.955 0.907 2.815 3.054 2.815Z" fill="#000000" stroke-width="1"></path>
</svg>